<svg xmlns="http://www.w3.org/2000/svg" xmlns:xlink="http://www.w3.org/1999/xlink" viewBox="0 0 230.86 300"><defs><style>.cls-1{fill:none;}.cls-2{clip-path:url(#clippath);}.cls-3{fill:#f3f0e3;}.cls-4{fill:#b77c16;}.cls-5{fill:#114544;mix-blend-mode:multiply;}.cls-6{isolation:isolate;}</style><clipPath id="clippath"><rect class="cls-1" x="23.43" y="11.4" width="135.05" height="87.9"></rect></clipPath></defs><g class="cls-6"><g id="Layer_1"><g><path d="M44.27,254.8h3.78c.42,0,.76,.34,.76,.76v24.92c0,.42-.34,.76-.76,.76h-3.78c-.42,0-.76-.34-.76-.76v-9.44c0-.23-.15-.38-.38-.38h-5.74c-.23,0-.38,.15-.38,.38v9.44c0,.42-.53,.76-.94,.76h-3.59c-.42,0-.76-.34-.76-.76v-24.92c0-.42,.34-.76,.76-.76h3.78c.42,0,.76,.34,.76,.76v9.44c0,.23,.15,.38,.38,.38h5.74c.23,0,.38-.15,.38-.38v-9.44c0-.42,.34-.76,.76-.76Z"></path><path d="M71.23,260.69c.38,3.17,.38,7.4,0,10.57-.53,4.53-3.78,8.35-8.99,8.35s-8.46-3.81-8.99-8.35c-.38-3.17-.38-7.4,0-10.57,.53-4.53,3.78-8.35,8.99-8.35s8.46,3.81,8.99,8.35Zm-5.33,10.57c.38-3.17,.38-7.4,0-10.57-.19-1.66-1.36-3.02-3.66-3.02s-3.47,1.36-3.66,3.02c-.38,3.17-.38,7.4,0,10.57,.19,1.66,1.36,3.02,3.66,3.02s3.47-1.36,3.66-3.02Z"></path><path d="M80.97,280.48c0,.23,.15,.38,.38,.38h8.95c.42,0,.76,.34,.76,.76v3.78c0,.42-.34,.76-.76,.76h-13.86c-.42,0-.76-.34-.76-.76v-24.92c0-.42,.34-.76,.76-.76h13.71c.42,0,.76,.34,.76,.76v3.78c0,.42-.34,.76-.76,.76h-8.8c-.23,0-.38,.15-.38,.38v4.53c0,.23,.15,.38,.38,.38h8.5c.42,0,.76,.34,.76,.76v3.78c0,.42-.34,.76-.76,.76h-8.5c-.23,0-.38,.15-.38,.38v4.53Z"></path><path d="M100.04,283.4c-.11,.19-.04,.38,.23,.38h9.97c.42,0,.76,.34,.76,.76v3.66c0,.42-.34,.76-.76,.76h-15.63c-.42,0-.76-.34-.76-.76v-4.49c0-.23,.08-.42,.19-.6l10.42-15.03c.11-.19,.04-.38-.23-.38h-9.06c-.42,0-.76-.34-.76-.76v-3.66c0-.42,.34-.76,.76-.76h14.69c.42,0,.76,.34,.76,.76v4.38c0,.23-.08,.42-.19,.6l-10.39,15.14Z"></path><path d="M132.25,266.09c.38,3.17,.38,7.4,0,10.57-.53,4.53-3.78,8.35-8.99,8.35s-8.46-3.81-8.99-8.35c-.38-3.17-.38-7.4,0-10.57,.53-4.53,3.78-8.35,8.99-8.35s8.46,3.81,8.99,8.35Zm-5.33,10.57c.38-3.17,.38-7.4,0-10.57-.19-1.66-1.36-3.02-3.66-3.02s-3.47,1.36-3.66,3.02c-.38,3.17-.38,7.4,0,10.57,.19,1.66,1.36,3.02,3.66,3.02s3.47-1.36,3.66-3.02Z"></path><path d="M154.07,250.8c4.65,0,7.89,3.81,8.42,8.35,.38,3.17,.38,6.57,0,9.74-.53,4.53-3.78,8.35-8.42,8.35h-7.93c-.42,0-.76-.34-.76-.76v-24.92c0-.42,.34-.76,.76-.76h7.93Zm-3.02,5.29c-.23,0-.38,.15-.38,.38v15.11c0,.23,.15,.38,.38,.38h3.02c1.74,0,2.91-1.4,3.1-3.06,.38-3.17,.38-6.57,0-9.74-.19-1.66-1.36-3.06-3.1-3.06h-3.02Z"></path><path d="M177.26,273.93c-.08-.3-.23-.57-.57-.57h-5.74c-.34,0-.49,.23-.57,.57l-1.06,3.89c-.08,.34-.38,.57-.72,.57h-3.96c-.6,0-.83-.42-.76-.76l6.76-25.11c.08-.34,.38-.57,.72-.57h5.06c.34,0,.64,.23,.72,.57l6.72,25.11c.08,.34-.15,.76-.76,.76h-3.96c-.34,0-.6-.23-.72-.57l-1.17-3.89Zm-1.36-6.27l-1.81-9.06c-.04-.11-.08-.15-.19-.15h-.08c-.11,0-.15,.04-.19,.15l-1.81,9.06c-.08,.3,.08,.42,.3,.42h3.47c.23,0,.38-.11,.3-.42Z"></path><path d="M198.25,273.85c-.64,0-.91-.34-1.02-.64l-5.14-13.25c-.08-.23-.34-.15-.34,.08v13.07c0,.42-.34,.76-.76,.76h-3.78c-.42,0-.76-.34-.76-.76v-24.92c0-.42,.34-.76,.76-.76h4.49c.57,0,.83,.34,.94,.68l5.17,14.35c.08,.23,.34,.15,.34-.08v-14.2c0-.42,.34-.76,.76-.76h3.78c.42,0,.76,.34,.76,.76v24.92c0,.42-.34,.76-.76,.76h-4.46Z"></path><path d="M215.05,256.02c-1.7,0-2.72,1.32-2.72,2.76v.64c0,.42-.34,.76-.76,.76h-3.78c-.42,0-.76-.34-.76-.76v-.57c0-4.46,3.63-8.08,8.01-8.08s7.97,3.17,7.97,7.63c0,3.13-2,5.36-3.66,6.57-1.43,1.06-1.74,1.7-1.74,3.47v.38c0,.42-.34,.76-.76,.76h-3.78c-.42,0-.76-.34-.76-.76v-.38c0-1.17-.19-3.06,1.06-4.68,.83-1.06,2.11-1.7,2.91-2.45,.79-.76,1.43-1.77,1.43-2.64,0-1.62-1.17-2.64-2.68-2.64Zm2.95,21c0,.42-.34,.76-.76,.76h-4.53c-.42,0-.76-.34-.76-.76v-4.53c0-.42,.34-.76,.76-.76h4.53c.42,0,.76,.34,.76,.76v4.53Z"></path></g><g><path class="cls-5" d="M102.35,117.02l45.12,32.73,4.6,56.23-30.71,35.57-63.05-17.26s-40.33-13.51-44.88-69.18c-4.55-55.67-5.59-68.31-5.59-68.31l32.16-17.92,24.54,26.01,37.82,22.12Z"></path><path class="cls-3" d="M95.9,129.73l32.81,24.01,6.56,41.48-24.07,24.02-48.13-13.09s-28.44-8.73-33.16-49.06c-5.02-42.93-4.32-52.86-4.32-52.86l17.06-9.19,22.79,19.53,30.46,15.16Z"></path><path class="cls-4" d="M96.62,200.06c-5.27,.65-24.46,1.54-30.99-18.49-.26-.8-.42-1.63-.48-2.47-.14-2.09-.25-6.5,.72-11.16,.13-.63,.21-1.27,.22-1.91,.05-2.35,.34-8.36,2.05-10.38,2.15-2.54,4.89-7.88,7.26-8.26s10.31-8.13,20.99-.36,14.22,9.78,17.62,18.82c3.4,9.04,6.25,15.18,1.29,21.27-4.75,5.84-8.42,9.29-16.31,12.36-.77,.3-1.57,.49-2.38,.59Z"></path></g><g><g class="cls-2"><path d="M94.18,56.59l3.98-.69c.47-.08,.93,.24,1.01,.71l3.16,18.16c.07,.37,.24,.86-.17,1.05l-1.21,.65-2.45,.41-1.4-.2c-.33-.01-.4-.44-.48-.91l-3.16-18.16c-.08-.47,.24-.93,.71-1.01"></path><path d="M99.19,79.72l2.07-.36c.19-.03,.37,.09,.4,.28l.21,1.21c.03,.19-.09,.37-.28,.4l-2.07,.36c-.19,.03-.37-.1-.4-.28l-.21-1.2c-.03-.19,.09-.37,.28-.4"></path><path d="M98.71,76.1l1.78-.31c.19-.03,.37,.09,.4,.28l.44,3.26c.03,.19-.09,.37-.28,.41l-1.54,.27c-.19,.03-.37-.09-.4-.28l-.69-3.22c-.03-.19,.09-.37,.28-.4"></path><path d="M23.43,47.14V22.27c0-.41,.34-.75,.75-.75h3.77c.42,0,.75,.34,.75,.75v9.42c0,.23,.15,.38,.38,.38h5.65c.23,0,.38-.15,.38-.38v-9.42c0-.41,.34-.75,.75-.75h3.77c.41,0,.75,.34,.75,.75v24.87c0,.41-.34,.75-.75,.75h-3.77c-.42,0-.75-.34-.75-.75v-9.42c0-.23-.15-.38-.38-.38h-5.65c-.23,0-.38,.15-.38,.38v9.42c0,.41-.53,.75-.94,.75h-3.58c-.41,0-.75-.34-.75-.75"></path><path d="M45.77,41.53V16.66c0-.41,.34-.75,.75-.75h13.68c.41,0,.75,.34,.75,.75v3.77c0,.41-.34,.75-.75,.75h-8.78c-.23,0-.38,.15-.38,.38v4.52c0,.23,.15,.38,.38,.38h8.48c.41,0,.75,.34,.75,.75v3.77c0,.41-.34,.75-.75,.75h-8.48c-.23,0-.38,.15-.38,.38v4.52c0,.23,.15,.38,.38,.38h8.93c.41,0,.75,.34,.75,.75v3.77c0,.41-.34,.75-.75,.75h-13.83c-.41,0-.75-.34-.75-.75"></path><path d="M76.06,32c.23,0,.34-.15,.3-.42l-1.77-8.85c-.04-.23-.08-.34-.19-.34h-.15c-.11,0-.15,.11-.19,.34l-1.77,8.85c-.04,.26,.08,.42,.3,.42h3.47Zm-11.68,9.72c0-.19,.04-.34,.15-.75l6.59-24.49c.11-.38,.38-.57,.72-.57h5.05c.34,0,.6,.19,.72,.57l6.56,24.49c.11,.42,.15,.57,.15,.75,0,.34-.26,.57-.75,.57h-3.96c-.34,0-.6-.19-.72-.57l-1.17-3.88c-.11-.34-.23-.57-.57-.57h-5.73c-.34,0-.45,.19-.56,.57l-1.06,3.88c-.11,.38-.38,.57-.72,.57h-3.96c-.49,0-.75-.23-.75-.57"></path><path d="M87.44,44.43V19.56c0-.41,.34-.75,.75-.75h3.77c.42,0,.75,.34,.75,.75v19.97c0,.23,.15,.38,.38,.38h7.91c.41,0,.75,.34,.75,.75v3.77c0,.41-.34,.75-.75,.75h-12.81c-.41,0-.75-.34-.75-.75"></path><path d="M104.04,37.02V17.05c0-.23-.15-.38-.38-.38h-4.71c-.41,0-.75-.34-.75-.75v-3.77c0-.41,.34-.75,.75-.75h15.45c.42,0,.75,.34,.75,.75v3.77c0,.41-.34,.75-.75,.75h-4.71c-.23,0-.38,.15-.38,.38v19.97c0,.41-.34,.75-.75,.75h-3.77c-.41,0-.75-.34-.75-.75"></path><path d="M118.92,41.53V16.66c0-.41,.34-.75,.75-.75h3.77c.41,0,.75,.34,.75,.75v9.42c0,.23,.15,.38,.38,.38h5.65c.23,0,.38-.15,.38-.38v-9.42c0-.41,.34-.75,.75-.75h3.77c.41,0,.75,.34,.75,.75v24.87c0,.41-.34,.75-.75,.75h-3.77c-.41,0-.75-.34-.75-.75v-9.42c0-.23-.15-.38-.38-.38h-5.65c-.23,0-.38,.15-.38,.38v9.42c0,.41-.53,.75-.94,.75h-3.58c-.42,0-.75-.34-.75-.75"></path><path d="M146.42,41.53v-8.63l-6.56-15.64c-.19-.41-.23-.6-.23-.83,0-.26,.15-.53,.6-.53h4.26c.34,0,.57,.15,.72,.57l3.58,9.42c.08,.23,.15,.34,.26,.34s.19-.11,.26-.34l3.58-9.42c.15-.41,.38-.57,.72-.57h4.26c.45,0,.6,.26,.6,.53,0,.23-.04,.41-.23,.83l-6.56,15.64v8.63c0,.41-.34,.75-.75,.75h-3.77c-.42,0-.75-.34-.75-.75"></path><path d="M85.53,78.26c.49-1.09,.53-4.05,.53-6.45s-.04-5.36-.53-6.45c-.53-1.16-1.61-1.8-3.3-1.8s-2.77,.64-3.3,1.8c-.49,1.09-.53,4.05-.53,6.45s.04,5.36,.53,6.45c.53,1.16,1.61,1.8,3.3,1.8s2.77-.64,3.3-1.8m-11.44,2.1c-.97-2.17-1.05-4.99-1.05-8.55s.08-6.37,1.05-8.55c1.31-2.93,4.09-4.99,8.14-4.99s6.83,2.06,8.14,4.99c.98,2.17,1.05,4.99,1.05,8.55s-.08,6.38-1.05,8.55c-1.31,2.93-4.09,4.99-8.14,4.99s-6.83-2.06-8.14-4.99"></path><path d="M106.23,77.98v-24.75c0-.41,.34-.75,.75-.75h3.75c.41,0,.75,.34,.75,.75v19.88c0,.22,.15,.38,.38,.38h7.87c.41,0,.75,.34,.75,.75v3.75c0,.41-.34,.75-.75,.75h-12.75c-.41,0-.75-.34-.75-.75"></path><path d="M100.07,87.6l.5-.12h.8l.48,.2c.54,0,1.45,2.7,1.5,2.71,.49,1.49,1.21,2.64,1.29,4.83-.22,6.52-9.06,4.8-7.06-2.17,.67-1.47,1.12-4.27,2.5-5.45"></path></g><path d="M129.53,58.75c-1.67,0-2.67,1.3-2.67,2.71v.63c0,.41-.33,.74-.74,.74h-3.71c-.41,0-.74-.33-.74-.74v-.56c0-4.38,3.56-7.93,7.86-7.93s7.82,3.11,7.82,7.49c0,3.08-1.97,5.27-3.6,6.45-1.41,1.04-1.71,1.67-1.71,3.41v.37c0,.41-.33,.74-.74,.74h-3.71c-.41,0-.74-.33-.74-.74v-.37c0-1.15-.19-3,1.04-4.6,.82-1.04,2.08-1.67,2.86-2.41s1.41-1.74,1.41-2.6c0-1.59-1.15-2.6-2.63-2.6Zm2.89,20.62c0,.41-.33,.74-.74,.74h-4.45c-.41,0-.74-.33-.74-.74v-4.45c0-.41,.33-.74,.74-.74h4.45c.41,0,.74,.33,.74,.74v4.45Z"></path></g></g></g></svg>